<svg width="39px" height="39px" viewBox="0 0 39 39" version="1.1" xmlns="http://www.w3.org/2000/svg" xmlns:xlink="http://www.w3.org/1999/xlink"><g id="Page-1" stroke="none" stroke-width="1" fill="none" fill-rule="evenodd"><g id="Engine-Control-2-buttons" transform="translate(-146.000000, -41.000000)"><g id="resume" transform="translate(146.000000, 41.000000)"><path d="M19.5,36.5644898 L19.5,36.5644898 C28.9236735,36.5644898 36.5644898,28.9236735 36.5644898,19.5 C36.5644898,10.0763265 28.9236735,2.4355102 19.5,2.4355102 C10.0763265,2.4355102 2.4394898,10.0763265 2.4394898,19.5 C2.4394898,28.9236735 10.0763265,36.5644898 19.5,36.5644898 L19.5,36.5644898 Z M19.5,39 L19.5,39 C8.73122449,39 0,30.2687755 0,19.5 C0,8.73122449 8.73122449,0 19.5,0 C30.2687755,0 39,8.73122449 39,19.5 C39,30.2687755 30.2687755,39 19.5,39 L19.5,39 Z" id="Shape" fill="#000000" fill-rule="nonzero"></path><path d="M23,15.5620499 L15.1350416,25 L30.8649584,25 L23,15.5620499 Z" id="Triangle" stroke="#000000" stroke-width="2" transform="translate(23.000000, 20.000000) rotate(90.000000) translate(-23.000000, -20.000000) "></path></g></g></g></svg>